<svg xmlns="http://www.w3.org/2000/svg" width="440" height="125" viewBox="0 0 439.5 124.9"><path d="m298.8 122c-3.5-3.5-3.6-6-0.8-11.8 2.4-4.9 6.9-8.8 18.3-15.8 6.9-4.2 7.7-5 6.1-5.9-1-0.6-3.2-2.3-4.9-3.7-2.7-2.3-3.1-3.2-2.9-7.5l0.2-4.8-3.2 4c-1.7 2.2-4.6 5.5-6.4 7.2-5.6 5.5-15.7 6.7-19.7 2.3-2.5-2.8-3-8.9-1.2-13.5 2.1-5 2-5.6-0.4-5.6-1.3 0-2.7 1.2-3.7 3.1-3.6 6.5-10.3 14.9-13.1 16.3-1.6 0.8-5.2 1.5-8 1.5-4 0-5.3-0.4-6.5-2.2-2.7-3.9-2-10.7 2-18.1 2.4-4.5 3.1-6.7 2.2-6.7-2.6 0-8.7 5.6-12.5 11.5-9.8 15.2-26.5 28.6-44.2 35.4-14.5 5.6-22 4.3-22-3.9 0-5.8 4.5-11.8 14.6-19.2 4.9-3.7 9.8-8.1 10.8-9.8 1-1.8 3.4-7.5 5.2-12.8l3.4-9.6-3.2-1.1c-4.4-1.5-4.9-5.3-1.1-8.3 1.5-1.2 3.6-2.1 4.7-2.1 3.4 0 5.6-3 7.8-10.4 1.2-3.9 3.3-9.3 4.7-12.1 1.4-2.7 2.8-5.3 3-5.7 0.9-1.9-5.9-0.4-14.1 3.3-10.5 4.7-13.8 5.1-13.7 1.8 0-2.9 4.3-5.7 16.2-10.3 16.4-6.4 29.3-8.1 35.8-4.6 3.9 2.1 8 8.9 8 13.2 0 6.1-5.4 14.2-12.1 18.5-2.1 1.3-3.9 2.9-3.9 3.5 0 0.6 1.6 2.9 3.5 5 2.2 2.5 3.7 5.3 4.1 7.9 0.4 2.2 0.7 4 0.8 4 0.1 0 5-1.3 10.9-3 13.3-3.7 15.9-3.8 18.6-0.4 1.1 1.4 2.1 3.3 2.1 4.1 0 0.8 0.6 1.2 1.3 1 17.9-7.3 24.4-9.6 25.8-9.2 2.3 0.7 7 7.6 7 10.3 0 1.2 0.3 2.2 0.6 2.2 0.3 0 3.2-1.6 6.3-3.5 7.5-4.6 16.5-6.4 20.9-4.1 1.7 0.9 3.3 1.6 3.6 1.6 0.3 0 1.7-1.8 3.1-4 2.8-4.5 5.8-5.2 7.6-1.9 1.6 2.9 0.6 6.8-3.1 12.8-1.7 2.8-3 5.3-2.7 5.6 0.6 0.6 10.6-4.8 18.1-9.6 13-8.4 17.8-2 9.8 13.4-3.4 6.6-3.8 8.7-1.6 8.7 1.9 0 4.6-2.8 4.6-4.8 0-9.5 10.7-20.8 22.4-23.6 3.5-0.8 7.3 1.4 8.7 5 1.6 4.3-2.2 12.3-9 19-3.8 3.7-5.6 6.2-5 6.8 1.9 1.9 11.6-1.4 20.6-6.9 13.6-8.3 15.2-9.1 16.5-7.7 1.7 1.7-1.3 5.6-8.5 10.9-15.5 11.4-26.5 14.6-37.2 11-3.1-1.1-5.4-1.1-10.1-0.3-3.3 0.6-7.3 0.7-8.7 0.4-6.2-1.6-7.8-10.2-3.3-18.2 1.5-2.6 2.4-5 2.2-5.2-0.3-0.3-2.2 0.6-4.3 1.9-2.1 1.3-5.9 3.5-8.6 4.9-9.8 5.1-15.5 10.7-23.2 22.4-8.2 12.6-21.3 27.2-26.2 29.2-5.2 2.2-9.1 1.7-12.4-1.6zm12.9-6.5c4.6-2.4 16.2-17 16.2-20.4 0-1.8-4.8 0.8-13 7-6.6 4.9-12 11-12 13.5 0 1.8 5.3 1.7 8.8-0.1zM199.6 99.7c5.9-2.9 13.5-7.3 16.8-9.7 9.7-7.2 20.6-19 17.5-19-2.1 0-19.6 9.5-30.5 16.5-24.1 15.6-26.4 23.3-3.7 12.2zm69-25.2c3.4-4.9 3.8-8.4 1.2-11-2-2.1-11 9.1-11 13.6 0 2.7 0.3 2.9 3.2 2.6 2.5-0.2 3.9-1.3 6.6-5.3zm29.1 4c1.5-0.8 4-2.8 5.5-4.4 2.4-2.5 2.7-3.3 1.8-5-0.6-1.1-1.1-2.9-1.1-4 0-3.6-2-3.4-5.7 0.5-4.7 5.1-6.7 9.7-5.3 12.4 1.3 2.4 1.3 2.4 4.8 0.6zm33.2-1.2c1.4-0.9 4.8-3.9 7.7-6.7 4.2-4.1 5.3-5.7 5.3-8.4 0-3.8-1.4-4.2-6.3-1.6-8.4 4.4-15.8 13-14.3 16.8 0.8 2 4.6 1.9 7.7-0.1zm71.4-8.5c2-2.3 3.6-4.7 3.6-5.4 0-0.7 0.3-2 0.6-2.8 0.9-2.3-2.2-2-5.7 0.5-2.7 1.9-6.9 8.5-6.9 10.9 0 0.6 1.1 1 2.4 1 1.6 0 3.6-1.4 6-4.2zm-179.9-1.3c3.2-1.9 8.1-4.2 10.9-5.1 6.4-2.1 7.6-3 7.6-6.1 0-3.6-2.6-6.8-6.9-8.8-4.8-2.2-6.9-1.3-10.8 4.7-2.3 3.5-8.2 16.6-8.2 18.3 0 1.1 2.1 0.3 7.5-3zm15.1-34.1c9.4-6.3 13.4-12.5 11.5-17.7-0.5-1.4-1.8-2.8-2.8-3.1-5-1.4-8.7-1.8-12.4-1.1l-4 0.7 2.5 2.3c1.4 1.3 2.8 3.4 3.1 4.7 0.6 2.4-2.8 13.2-4.6 14.3-0.5 0.3-0.9 1-0.9 1.5 0 1.8 3.7 1 7.6-1.7zM0.9 91.5c-2.1-2.6-1.4-4.8 12.6-35.7 9.7-21.4 13.4-29.7 17.9-39.7 2.6-5.9 5.9-11.7 7.6-13.3 5.4-5 11.9-2.7 11.9 4.2 0 3.3-1.3 5.9-25 50-4 7.4-9 16.8-11.1 20.8C6.7 92.9 4.2 95.4 0.9 91.5ZM52.2 90c-5.7-2.6-8.3-7-8.3-14.3 0-13.1 8.3-26.7 21.6-35.3 6.8-4.4 12.3-5.8 17.3-4.5 4.5 1.2 5.1 2.3 5.1 9.4 0 6.7-1.7 10.1-5.4 10.5-3.1 0.4-3.1 0.6-1-9.7 0.7-3.3 0.6-3.4-2.2-2.7-8.8 2.2-24.4 22.5-24.4 31.7 0 4.9 2.1 6.4 8.9 6.3 9.1-0.1 16.3-4.8 18.2-11.9 1.5-5.7 5.8-12.1 12.6-18.7 7.1-7 14.1-10.8 19.8-10.8 4.6 0 8.5 2.7 8.5 6 0 2.8 1.5 3.2 3.5 1 2-2.2 5.1-2.6 5.7-0.7 0.7 2-1.3 6.8-4.7 11.6-5.2 7.3-8.4 12.6-8.5 13.9-0.2 2.5 2.8 0 10.4-8.8 7.2-8.3 12.7-12.9 15.3-12.9 3.9 0 5.4 6.8 2.6 12.1-0.9 1.7-1.4 3.2-1.1 3.5 0.2 0.2 3.7-2.5 7.6-6.1 7.3-6.7 11.1-8.1 13.9-5.3 2.6 2.6 0.5 10.9-5 19.9-4.9 8.1-2.7 10.8 3.6 4.3 3.6-3.7 6.8-4.3 7.4-1.3 0.5 2.7-7.5 10.8-11.8 11.9-8.2 2.2-12.6-1.5-11.4-9.7l0.7-4.8-6.3 5.7c-7.6 6.8-10.6 7.9-13.2 4.7-1.8-2.2-1.8-4.2 0-10.3 0.3-1.1-2.7 1-7.6 5.3-4.8 4.2-9 7.2-10.3 7.2-1.2 0-3.4-1.2-4.9-2.6l-2.8-2.6-3.6 3.1c-3 2.6-4.4 3.1-8.5 3.1-4.1 0-5.5-0.5-8.3-3-1.9-1.6-3.9-3-4.5-3-0.6 0-3.9 1.8-7.3 4-9.7 6.3-14.7 7.2-21.6 4zm47.4-13.6c7.6-6.2 17.3-20.6 17.3-25.7 0-2.4-0.3-2.7-2.1-2.1-7.4 2.3-17.4 13.1-20.9 22.3-2 5.3-1.9 9.1 0.3 9.1 0.6 0 3.1-1.6 5.5-3.6zM387.9 37c-2.3-4.4-0.3-8.2 5.1-9.6 3-0.8 5.9 1.5 5.9 4.6 0 2.8-4.4 6.9-7.4 6.9-1.5 0-2.9-0.8-3.5-1.9z" fill="#373a3c"/></svg>